<?xml version="1.0" encoding="utf-8"?>
<!-- Generator: Adobe Illustrator 27.0.0, SVG Export Plug-In . SVG Version: 6.00 Build 0)  -->
<svg version="1.1" id="Layer_1" xmlns="http://www.w3.org/2000/svg" xmlns:xlink="http://www.w3.org/1999/xlink" x="0px" y="0px"
	 viewBox="0 0 234.9 46.2" style="enable-background:new 0 0 234.9 46.2;" xml:space="preserve">
<style type="text/css">
	.st0{fill:#FFFFFF;}
	.st1{clip-path:url(#SVGID_00000002371550841414127980000014294632448172830135_);}
	.st2{fill:#FF809D;}
	.st3{fill:#1F47E4;}
</style>
<g>
	<g>
		<g>
			<path class="st0" d="M7.5,25.3H0.7c-0.4,0-0.7-0.4-0.6-0.8l1.9-6.9c0.1-0.3,0.3-0.5,0.6-0.5H28c0.4,0,0.7,0.4,0.6,0.8l-1.9,6.9
				c-0.1,0.3-0.3,0.5-0.6,0.5h-7.6c-0.3,0-0.6,0.2-0.6,0.5l-5.4,19.9c-0.1,0.3-0.3,0.5-0.6,0.5H3.6c-0.4,0-0.7-0.4-0.6-0.8l5.2-19.2
				C8.3,25.7,8,25.3,7.5,25.3z"/>
			<path class="st0" d="M32.4,14.3h25.4c0.6,0,1,0.5,0.8,1.1l-1.9,7.1c-0.1,0.4-0.4,0.6-0.8,0.6H40.5c-0.4,0-0.7,0.3-0.8,0.6
				l-0.4,1.6c-0.1,0.5,0.3,1.1,0.8,1.1h13.4c0.6,0,1,0.5,0.8,1.1l-1.6,6c-0.1,0.4-0.4,0.6-0.8,0.6H37.6c-0.4,0-0.7,0.3-0.8,0.6
				l-0.5,1.8c-0.1,0.5,0.3,1.1,0.8,1.1h14.7c0.6,0,1,0.5,0.8,1.1l-1.9,7.1c-0.1,0.4-0.4,0.6-0.8,0.6H24.3c-0.6,0-1-0.5-0.8-1.1
				l8.1-30.2C31.7,14.6,32,14.3,32.4,14.3z"/>
			<path class="st0" d="M63.1,11.2h9.4c0.4,0,0.8,0.2,1,0.6l6.4,13.4c0.4,0.9,1.8,0.8,2.1-0.2l3.5-13c0.1-0.5,0.6-0.8,1.1-0.8h9.3
				c0.7,0,1.3,0.7,1.1,1.4l-8.8,32.8c-0.1,0.5-0.6,0.8-1.1,0.8h-8.9c-0.4,0-0.8-0.2-1-0.6l-6.7-14.1c-0.4-0.9-1.8-0.8-2.1,0.2
				l-3.7,13.7c-0.1,0.5-0.6,0.8-1.1,0.8h-9.3c-0.7,0-1.3-0.7-1.1-1.4L62.1,12C62.2,11.5,62.6,11.2,63.1,11.2z"/>
			<path class="st0" d="M107.9,18.7h-9c-0.6,0-1-0.5-0.8-1.1l2.4-9.1c0.1-0.4,0.4-0.6,0.8-0.6h33.6c0.6,0,1,0.5,0.8,1.1l-2.4,9.1
				c-0.1,0.4-0.4,0.6-0.8,0.6h-10c-0.4,0-0.7,0.3-0.8,0.6l-7,26.2c-0.1,0.4-0.4,0.6-0.8,0.6h-11c-0.6,0-1-0.5-0.8-1.1l6.8-25.3
				C108.9,19.2,108.4,18.7,107.9,18.7z"/>
			<path class="st0" d="M140.2,4.1h33.6c0.7,0,1.3,0.7,1.1,1.4l-2.5,9.3c-0.1,0.5-0.6,0.8-1.1,0.8H151c-0.5,0-1,0.3-1.1,0.8l-0.5,2
				c-0.2,0.7,0.3,1.4,1.1,1.4h17.6c0.7,0,1.3,0.7,1.1,1.4l-2.1,7.9c-0.1,0.5-0.6,0.8-1.1,0.8h-18.9c-0.5,0-1,0.3-1.1,0.8l-0.6,2.3
				c-0.2,0.7,0.3,1.4,1.1,1.4h19.4c0.7,0,1.3,0.7,1.1,1.4l-2.5,9.3c-0.1,0.5-0.6,0.8-1.1,0.8h-33.9c-0.7,0-1.3-0.7-1.1-1.4
				l10.7-39.9C139.3,4.4,139.7,4.1,140.2,4.1z"/>
			<path class="st0" d="M179.6,0H192c0.6,0,1.1,0.3,1.3,0.8l8.4,17.6c0.6,1.2,2.4,1.1,2.8-0.3L209,1.1c0.2-0.6,0.8-1.1,1.4-1.1h12.2
				c1,0,1.7,0.9,1.4,1.9l-11.6,43.2c-0.2,0.6-0.8,1.1-1.4,1.1h-11.7c-0.6,0-1.1-0.3-1.3-0.8l-8.8-18.5c-0.6-1.2-2.4-1.1-2.8,0.3
				l-4.9,18c-0.2,0.6-0.8,1.1-1.4,1.1H168c-1,0-1.7-0.9-1.4-1.9l11.6-43.2C178.3,0.4,178.9,0,179.6,0z"/>
		</g>
		<g>
			<g>
				<path class="st0" d="M230.1,2h1.4c0.5,0,0.8,0.1,1,0.3c0.2,0.2,0.3,0.4,0.3,0.7v0c0,0.5-0.2,0.8-0.6,0.9l0.7,1h-0.9l-0.6-0.9h0
					h-0.4V5h-0.8V2z M231.5,3.4c0.3,0,0.4-0.1,0.4-0.4v0c0-0.2-0.2-0.4-0.4-0.4h-0.5v0.7H231.5z"/>
			</g>
			<g>
				<path class="st0" d="M231.4,7c-1.9,0-3.5-1.6-3.5-3.5s1.6-3.5,3.5-3.5s3.5,1.6,3.5,3.5S233.3,7,231.4,7z M231.4,0.7
					c-1.5,0-2.8,1.2-2.8,2.8s1.3,2.8,2.8,2.8c1.5,0,2.8-1.3,2.8-2.8S232.9,0.7,231.4,0.7z"/>
			</g>
		</g>
	</g>
</g>
<g>
	<defs>
		
			<rect id="SVGID_1_" x="189.1" y="-293.4" transform="matrix(-1.836970e-16 1 -1 -1.836970e-16 687.9461 -240.5001)" width="550.3" height="1034.3"/>
	</defs>
	<clipPath id="SVGID_00000034058223642735902880000011719128820663848072_">
		<use xlink:href="#SVGID_1_"  style="overflow:visible;"/>
	</clipPath>
</g>
</svg>
