<svg version="1.2" preserveAspectRatio="none" xmlns="http://www.w3.org/2000/svg" viewBox="0 0 1021 550"  >
	<title>TenTen - landing page-ai</title>
	<defs>
		<clipPath clipPathUnits="userSpaceOnUse" id="cp1">
			<path d="m1021.54 550v-550.26h-1034.28v550.26z"/>
		</clipPath>
	</defs>
	<style>
		.s0 { fill: #000000 } 
		.s1 { fill: #ff809d } 
		.s2 { fill: #1f47e4 } 
	</style>
	<g id="Layer 1">
		<path id="&lt;Path&gt;" class="s0" d="m1021.5 550h-1021.6v-550.3h1021.6z"/>
		<g id="&lt;Clip Group&gt;" clip-path="url(#cp1)">
			<g id="&lt;Group&gt;">
				<path id="&lt;Path&gt;" class="s1" d="m797.6 442.9q-0.3-0.5-0.6-0.9l-6.7-10.9-15.6 7.6c-14.6 2.2-34.4 8.8-55.2 19.1-20.8 10.2-38.1 22-48.7 32.2l-17.9 8.8 7.3 11.9c5.2 10.6 40.2 3.9 78.1-14.8 38-18.7 64.5-42.4 59.3-53z"/>
				<path id="&lt;Path&gt;" class="s2" d="m731 484c-37.9 18.7-72.9 25.4-78.1 14.8-5.2-10.5 21.3-34.2 59.3-52.9 37.9-18.7 72.9-25.4 78.1-14.8 5.2 10.5-21.4 34.2-59.3 52.9z"/>
			</g>
			<g id="&lt;Group&gt;">
				<path id="&lt;Path&gt;" class="s1" d="m802.5 210.7q0.3-0.6 0.4-1.2l4.1-13.8-17.9-7.3c-12.7-10.6-33.1-22.3-57.1-32.1-24-9.8-46.8-15.5-63.2-16.8l-20.7-8.4-4.5 15c-5 12.2 26.6 36.5 70.5 54.4 43.9 17.8 83.5 22.4 88.4 10.2z"/>
				<path id="&lt;Path&gt;" class="s2" d="m718.6 185.5c-43.9-17.9-75.5-42.2-70.5-54.4 4.9-12.2 44.5-7.6 88.4 10.2 43.9 17.9 75.5 42.2 70.5 54.4-4.9 12.2-44.5 7.6-88.4-10.2z"/>
			</g>
			<g id="&lt;Group&gt;">
				<path id="&lt;Path&gt;" class="s1" d="m1066.9 184.1q-0.1-0.7-0.4-1.2l-4.6-13.6-18.9 4.5c-16.5-1.2-39.8 1.1-65 7.2-25.3 6.1-47.1 14.6-61.2 23.2l-21.7 5.2 5 14.8c3.1 12.8 43 14.2 89 3.1 46.1-11.1 80.9-30.5 77.8-43.2z"/>
				<path id="&lt;Path&gt;" class="s2" d="m984.1 212.5c-46.1 11.1-85.9 9.7-89-3.1-3.1-12.7 31.7-32.1 77.8-43.2 46-11.1 85.9-9.7 89 3.1 3.1 12.7-31.8 32.1-77.8 43.2z"/>
			</g>
			<g id="&lt;Group&gt;">
				<path id="&lt;Path&gt;" class="s1" d="m1060.4 7q-0.1-0.7-0.4-1.2l-4.6-13.6-18.9 4.5c-16.5-1.2-39.8 1.1-65.1 7.2-25.2 6.1-47 14.6-61.1 23.2l-21.7 5.2 5 14.8c3.1 12.8 42.9 14.2 89 3.1 46.1-11.1 80.9-30.5 77.8-43.2z"/>
				<path id="&lt;Path&gt;" class="s2" d="m977.5 35.4c-46 11.1-85.9 9.7-88.9-3.1-3.1-12.7 31.7-32.1 77.8-43.2 46-11.1 85.9-9.7 89 3.1 3 12.7-31.8 32.1-77.9 43.2z"/>
			</g>
			<g id="&lt;Group&gt;">
				<path id="&lt;Path&gt;" class="s1" d="m325.5 148.8q0.4 0.6 0.8 1l8.7 11.5 16.5-10.2c16-4 37.4-13.6 59.5-27.3 22-13.7 40.1-28.7 50.8-41.3l18.9-11.7-9.4-12.5c-7-11.2-45.2 0-85.5 25-40.2 25-67.2 54.4-60.3 65.5z"/>
				<path id="&lt;Path&gt;" class="s2" d="m395.3 95.8c40.2-25 78.5-36.2 85.4-25 7 11.1-20 40.5-60.3 65.5-40.2 25-78.5 36.2-85.4 25-6.9-11.2 20.1-40.5 60.3-65.5z"/>
			</g>
			<g id="&lt;Group&gt;">
				<path id="&lt;Path&gt;" class="s1" d="m638.6 391q0.1-0.6 0.1-1.3l1.2-14.3-19.1-3.4c-14.6-7.8-36.9-15-62.4-19.6-25.6-4.6-49-5.5-65.4-3.3l-22-3.9-1.3 15.6c-2.3 12.9 33.6 30.2 80.3 38.5 46.6 8.4 86.3 4.7 88.6-8.3z"/>
				<path id="&lt;Path&gt;" class="s2" d="m551.3 383.7c-46.7-8.3-82.6-25.6-80.3-38.5 2.3-13 42-16.7 88.7-8.4 46.6 8.4 82.5 25.7 80.2 38.6-2.3 13-42 16.7-88.6 8.3z"/>
			</g>
			<g id="&lt;Group&gt;">
				<path id="&lt;Path&gt;" class="s1" d="m535 579.7q0.3-0.5 0.6-1.1l6.9-12.6-16-10.9c-10.2-13-27.6-28.7-49.1-43.2-21.5-14.6-42.5-25-58.4-29.7l-18.5-12.5-7.5 13.7c-7.4 10.9 18.4 41.3 57.6 67.9 39.2 26.6 77 39.3 84.4 28.4z"/>
				<path id="&lt;Path&gt;" class="s2" d="m458.2 537.6c-39.2-26.6-65-57-57.7-67.9 7.4-10.9 45.2 1.8 84.4 28.4 39.2 26.7 65 57 57.6 67.9-7.4 10.9-45.1-1.8-84.3-28.4z"/>
			</g>
			<g id="&lt;Group&gt;">
				<path id="&lt;Path&gt;" class="s1" d="m564.4 72.2q0.5 0.3 1.1 0.6l12.2 7.6 11.8-15.4c13.5-9.5 30.2-26 45.9-46.6 15.7-20.7 27.2-41.1 32.8-56.7l13.5-17.8-13.3-8.2c-10.5-8-42.2 16.1-70.9 53.8-28.7 37.7-43.5 74.7-33.1 82.7z"/>
				<path id="&lt;Path&gt;" class="s2" d="m610.7-2.3c28.8-37.6 60.5-61.7 71-53.8 10.5 8-4.3 45-33 82.7-28.8 37.7-60.5 61.8-71 53.8-10.5-7.9 4.3-45 33-82.7z"/>
			</g>
			<g id="&lt;Group&gt;">
				<path id="&lt;Path&gt;" class="s1" d="m939.7 460.9q0.4-0.5 0.8-1l9.8-10.5-13-14.5c-6.7-15.1-19.8-34.5-37.1-53.8-17.4-19.4-35.2-34.5-49.5-42.9l-14.9-16.6-10.6 11.5c-9.8 8.8 7.8 44.5 39.5 79.8 31.6 35.3 65.2 56.7 75 48z"/>
				<path id="&lt;Path&gt;" class="s2" d="m875.3 401.4c-31.6-35.3-49.3-71-39.5-79.8 9.8-8.8 43.4 12.7 75 48 31.6 35.3 49.3 71 39.5 79.8-9.8 8.8-43.4-12.7-75-48z"/>
			</g>
			<g id="&lt;Group&gt;">
				<path id="&lt;Path&gt;" class="s1" d="m1019.5 576q0.2-0.6 0.2-1.3l1.7-14.3-19-4.1c-14.3-8.3-36.3-16.3-61.7-21.8-25.3-5.5-48.7-7.3-65.2-5.7l-21.8-4.8-1.9 15.6c-2.7 12.8 32.5 31.4 78.8 41.5 46.3 10 86.1 7.7 88.9-5.1z"/>
				<path id="&lt;Path&gt;" class="s2" d="m932.5 565.5c-46.3-10-81.6-28.6-78.8-41.5 2.8-12.8 42.6-15.1 88.9-5.1 46.3 10.1 81.6 28.7 78.8 41.5-2.8 12.9-42.6 15.2-88.9 5.1z"/>
			</g>
			<g id="&lt;Group&gt;">
				<path id="&lt;Path&gt;" class="s1" d="m-410.7 453.1q0.6 0.3 1.2 0.4l13.9 3.5 6.6-18.3c10-13.1 20.9-33.9 29.6-58.3 8.7-24.4 13.5-47.4 14.1-63.9l7.5-21.1-15.2-3.8c-12.4-4.4-35.3 28.1-51.3 72.7-15.9 44.7-18.8 84.4-6.4 88.8z"/>
				<path id="&lt;Path&gt;" class="s2" d="m-389.1 368.2c15.9-44.6 38.9-77.2 51.3-72.8 12.4 4.5 9.5 44.2-6.5 88.8-15.9 44.7-38.9 77.2-51.3 72.8-12.4-4.4-9.5-44.2 6.5-88.8z"/>
			</g>
			<g id="&lt;Group&gt;">
				<path id="&lt;Path&gt;" class="s1" d="m127.2 534q0.5 0.4 1.1 0.6l12.6 6.8 10.8-16.1c12.9-10.3 28.5-27.9 42.8-49.5 14.4-21.6 24.6-42.7 29.2-58.6l12.3-18.6-13.8-7.4c-10.9-7.3-41.1 18.8-67.3 58.2-26.3 39.5-38.7 77.3-27.7 84.6z"/>
				<path id="&lt;Path&gt;" class="s2" d="m168.6 456.8c26.3-39.4 56.5-65.5 67.4-58.2 11 7.3-1.4 45.2-27.7 84.6-26.2 39.5-56.4 65.5-67.4 58.2-10.9-7.2 1.5-45.1 27.7-84.6z"/>
			</g>
			<g id="&lt;Group&gt;">
				<path id="&lt;Path&gt;" class="s1" d="m312.3 377.5q0.5-0.4 0.8-0.9l9.8-10.6-12.9-14.4c-6.8-15.1-19.9-34.6-37.2-53.9-17.3-19.3-35.2-34.5-49.5-42.9l-14.9-16.6-10.6 11.5c-9.8 8.8 7.9 44.5 39.5 79.8 31.6 35.3 65.2 56.8 75 48z"/>
				<path id="&lt;Path&gt;" class="s2" d="m247.9 318c-31.6-35.3-49.3-71-39.5-79.8 9.8-8.8 43.4 12.7 75 48 31.6 35.3 49.3 71 39.5 79.8-9.8 8.8-43.4-12.7-75-48z"/>
			</g>
			<g id="&lt;Group&gt;">
				<path id="&lt;Path&gt;" class="s1" d="m110.4 329.8q0.2-0.6 0.2-1.3l2.2-14.2-18.8-4.7c-14-8.8-35.8-17.5-61-23.9-25.1-6.3-48.4-8.9-64.9-7.8l-21.7-5.5-2.4 15.5c-3.2 12.7 31.4 32.5 77.4 44 45.9 11.6 85.8 10.7 89-2.1z"/>
				<path id="&lt;Path&gt;" class="s2" d="m23.8 316.5c-46-11.6-80.6-31.3-77.4-44.1 3.2-12.8 43.1-13.7 89-2.1 46 11.5 80.6 31.3 77.4 44-3.2 12.8-43.1 13.8-89 2.2z"/>
			</g>
		</g>
	</g>
</svg>
