<svg version="1.2" preserveAspectRatio="none" xmlns="http://www.w3.org/2000/svg" viewBox="0 0 1021 550" >
	<title>TenTen - landing page-ai</title>
	<style>
		.s0 { fill: #ffffff } 
	</style>
	<g id="Layer 1">
		<g id="&lt;Group&gt;">
			<path id="&lt;Compound Path&gt;" class="s0" d="m56.7 70.5h-6.9c-0.4 0-0.7-0.4-0.6-0.9l1.9-6.9c0-0.3 0.3-0.5 0.6-0.5h25.5c0.4 0 0.7 0.4 0.6 0.8l-1.8 7c-0.1 0.3-0.4 0.5-0.6 0.5h-7.6c-0.3 0-0.6 0.2-0.6 0.4l-5.4 20c-0.1 0.2-0.3 0.4-0.6 0.4h-8.4c-0.4 0-0.8-0.4-0.6-0.8l5.1-19.2c0.1-0.4-0.2-0.8-0.6-0.8z"/>
			<path id="&lt;Compound Path&gt;" class="s0" d="m81.6 59.5h25.4c0.6 0 1 0.5 0.8 1l-1.9 7.1c-0.1 0.3-0.4 0.6-0.8 0.6h-15.4c-0.4 0-0.8 0.3-0.9 0.6l-0.4 1.6c-0.1 0.5 0.3 1 0.8 1h13.4c0.6 0 1 0.6 0.8 1.1l-1.6 6c-0.1 0.4-0.4 0.6-0.8 0.6h-14.3c-0.3 0-0.7 0.3-0.8 0.7l-0.5 1.7c-0.1 0.6 0.3 1.1 0.8 1.1h14.8c0.5 0 0.9 0.5 0.8 1.1l-1.9 7c-0.1 0.4-0.4 0.6-0.8 0.6h-25.7c-0.5 0-0.9-0.5-0.8-1l8.1-30.2c0.1-0.4 0.5-0.6 0.9-0.6z"/>
			<path id="&lt;Compound Path&gt;" class="s0" d="m112.3 56.4h9.4c0.5 0 0.8 0.2 1 0.6l6.4 13.4c0.4 0.9 1.8 0.8 2-0.2l3.5-13c0.2-0.5 0.6-0.8 1.1-0.8h9.3c0.7 0 1.3 0.6 1.1 1.3l-8.8 32.8c-0.1 0.5-0.6 0.8-1.1 0.8h-8.8c-0.5 0-0.8-0.2-1-0.6l-6.7-14.1c-0.5-0.9-1.8-0.8-2.1 0.2l-3.7 13.7c-0.1 0.5-0.6 0.8-1.1 0.8h-9.3c-0.7 0-1.2-0.6-1-1.3l8.8-32.8c0.1-0.5 0.5-0.8 1-0.8z"/>
			<path id="&lt;Compound Path&gt;" class="s0" d="m157.1 63.8h-9.1c-0.5 0-1-0.5-0.8-1.1l2.4-9.1c0.1-0.3 0.5-0.6 0.9-0.6h33.6c0.5 0 0.9 0.5 0.8 1.1l-2.4 9.1c-0.1 0.4-0.5 0.6-0.9 0.6h-9.9c-0.4 0-0.8 0.3-0.9 0.7l-7 26.2c-0.1 0.4-0.5 0.6-0.9 0.6h-11c-0.5 0-1-0.5-0.8-1.1l6.8-25.3c0.1-0.5-0.3-1.1-0.8-1.1z"/>
			<path id="&lt;Compound Path&gt;" class="s0" d="m189.4 49.2h33.6c0.8 0 1.3 0.7 1.1 1.4l-2.5 9.3c-0.1 0.5-0.6 0.9-1.1 0.9h-20.4c-0.5 0-0.9 0.3-1.1 0.8l-0.5 2c-0.2 0.7 0.4 1.4 1.1 1.4h17.6c0.8 0 1.3 0.7 1.1 1.5l-2.1 7.9c-0.1 0.5-0.6 0.8-1.1 0.8h-18.8c-0.5 0-1 0.3-1.1 0.8l-0.7 2.4c-0.1 0.7 0.4 1.4 1.1 1.4h19.5c0.7 0 1.3 0.7 1.1 1.4l-2.5 9.3c-0.1 0.5-0.6 0.8-1.1 0.8h-33.9c-0.7 0-1.3-0.7-1.1-1.4l10.7-39.9c0.2-0.5 0.6-0.8 1.1-0.8z"/>
			<path id="&lt;Compound Path&gt;" class="s0" d="m228.8 45.1h12.4c0.5 0 1 0.4 1.3 0.9l8.4 17.6c0.6 1.2 2.4 1 2.7-0.3l4.6-17.1c0.2-0.6 0.8-1.1 1.5-1.1h12.2c1 0 1.7 1 1.4 1.9l-11.6 43.2c-0.2 0.7-0.7 1.1-1.4 1.1h-11.7c-0.5 0-1.1-0.3-1.3-0.8l-8.8-18.5c-0.6-1.3-2.4-1.1-2.8 0.2l-4.9 18c-0.1 0.7-0.7 1.1-1.4 1.1h-12.2c-1 0-1.7-0.9-1.5-1.8l11.6-43.3c0.2-0.6 0.8-1.1 1.5-1.1z"/>
		</g>
		<!-- <g id="&lt;Group&gt;">
			<g id="&lt;Group&gt;">
				 -->
				<!-- <g id="&lt;Group&gt;">
					<g id="&lt;Group&gt;">
						<path id="&lt;Compound Path&gt;" fill-rule="evenodd" class="s0" d="m279.3 47.2h1.4q0.7 0 1 0.3 0.2 0.2 0.2 0.7c0 0.4-0.2 0.7-0.6 0.9l0.7 1h-0.9l-0.6-0.9h-0.4v0.9h-0.8zm1.4 1.4c0.2 0 0.4-0.1 0.4-0.3 0-0.2-0.2-0.4-0.4-0.4h-0.6v0.7z"/>
					</g>
					<g id="&lt;Group&gt;">
						<path id="&lt;Compound Path&gt;" fill-rule="evenodd" class="s0" d="m280.5 52.1c-1.9 0-3.5-1.5-3.5-3.5 0-1.9 1.6-3.5 3.5-3.5 2 0 3.5 1.6 3.5 3.5 0 2-1.5 3.5-3.5 3.5zm0-6.2c-1.5 0-2.8 1.2-2.8 2.7 0 1.6 1.3 2.8 2.8 2.8 1.6 0 2.8-1.2 2.8-2.8 0-1.5-1.2-2.7-2.8-2.7z"/>
					</g>
				</g> -->
			<!-- </g>
		</g> -->
	</g>
</svg>